<svg viewBox="0 0 1200 790" xmlns="http://www.w3.org/2000/svg" role="img" aria-labelledby="mapaTitulo mapaDesc">
  <title id="mapaTitulo">Mapamundi del modelado de datos</title>
  <desc id="mapaDesc">Mapa cómico donde las técnicas de modelado de datos aparecen como territorios ordenados de oeste a este por antigüedad. Al oeste, las Tierras Primigenias con el Volcán Jerárquico (IMS, 1966) y la Ciénaga CODASYL (modelo en red, 1969). En el centro, el Continente Relacional con la Cordillera de Codd (1970), el Valle de las Formas Normales, la Ciudadela de Inmon (1990), la Constelación de Kimball (1996) y la Sierra Copo de Nieve. Al este, el Archipiélago Ensemble con la Fortaleza Data Vault, los Fiordos del Ancla (Suecia, 2004), el Cabo Focal y la Isla Bicéfala (Head and Version). En el extremo oriental, la Frontera Futura con las Islas Flotantes de la Malla (2019), la Vía Activity Schema (2020), la Megatorre Tablón y el Puente de Puppini (2020). Una línea temporal en la base va de 1966 a hoy.</desc>

  <defs>
    <filter id="wobble" x="-6%" y="-6%" width="112%" height="112%">
      <feTurbulence type="fractalNoise" baseFrequency="0.016" numOctaves="2" seed="11" result="ruido"/>
      <feDisplacementMap in="SourceGraphic" in2="ruido" scale="6" xChannelSelector="R" yChannelSelector="G"/>
    </filter>
    <filter id="wobbleSuave" x="-6%" y="-6%" width="112%" height="112%">
      <feTurbulence type="fractalNoise" baseFrequency="0.028" numOctaves="2" seed="4" result="ruido2"/>
      <feDisplacementMap in="SourceGraphic" in2="ruido2" scale="3" xChannelSelector="R" yChannelSelector="G"/>
    </filter>
    <linearGradient id="cieloFuturo" x1="0%" y1="0%" x2="0%" y2="100%">
      <stop offset="0%" stop-color="#463a66"/>
      <stop offset="100%" stop-color="#6b5f90"/>
    </linearGradient>
    <linearGradient id="lava" x1="0%" y1="0%" x2="0%" y2="100%">
      <stop offset="0%" stop-color="#f4a13c"/>
      <stop offset="100%" stop-color="#c2381f"/>
    </linearGradient>
    <radialGradient id="neon" cx="50%" cy="50%" r="50%">
      <stop offset="0%" stop-color="#5ee8e0" stop-opacity="0.75"/>
      <stop offset="100%" stop-color="#5ee8e0" stop-opacity="0"/>
    </radialGradient>
  </defs>

  <style>
    .rotulo      { font-family: Georgia, "Times New Roman", serif; fill: #3f2f21; }
    .region      { font-size: 14px; font-weight: bold; letter-spacing: 2.5px; fill: #5b4630; opacity: 0.8; }
    .lugar       { font-size: 13px; font-weight: bold; }
    .fecha       { font-size: 10.5px; font-style: italic; fill: #6b5943; }
    .mar         { font-size: 12.5px; font-style: italic; fill: #5b8494; letter-spacing: 2px; }
    .chiste      { font-size: 11px; font-style: italic; fill: #7a5a3c; }
    .futuro      { fill: #f2f6ff; }
    .futurofecha { fill: #c3cfef; }
  </style>

  <!-- ============ OCEANO Y MARCO ============ -->
  <rect width="1200" height="790" fill="#d3e2e6"/>
  <g stroke="#b3c9cf" stroke-width="1.4" fill="none" opacity="0.6">
    <path d="M320 176 q12 -7 24 0 t24 0"/>
    <path d="M636 200 q12 -7 24 0 t24 0"/>
    <path d="M604 690 q12 -7 24 0 t24 0"/>
    <path d="M296 626 q12 -7 24 0 t24 0"/>
    <path d="M900 660 q12 -7 24 0 t24 0"/>
    <path d="M60 250 q12 -7 24 0 t24 0"/>
    <path d="M868 430 q12 -7 24 0 t24 0"/>
  </g>
  <rect x="18" y="18" width="1164" height="754" fill="none" stroke="#a08f6d" stroke-width="7"/>
  <rect x="27" y="27" width="1146" height="736" fill="none" stroke="#6f5f45" stroke-width="2"/>

  <!-- ============ TITULO ============ -->
  <g class="rotulo" text-anchor="middle">
    <text x="600" y="60" font-size="26" font-weight="bold" letter-spacing="3" fill="#4a3728">MAPAMUNDI DEL MODELADO DE DATOS</text>
    <text x="600" y="80" font-size="13" font-style="italic" fill="#6b5943">de las ciénagas jerárquicas a las islas flotantes</text>
  </g>

  <!-- ============ TIERRAS PRIMIGENIAS ============ -->
  <g filter="url(#wobble)">
    <path d="M70 300 Q78 216 138 176 Q202 150 258 184 Q302 220 300 298 Q294 380 246 450 Q194 500 130 486 Q70 450 64 370 Z"
          fill="#a08152" stroke="#6e5533" stroke-width="2.5"/>
    <g fill="#5f7a44" opacity="0.9">
      <circle cx="88" cy="352" r="15"/><circle cx="112" cy="376" r="11"/>
      <circle cx="240" cy="238" r="13"/><circle cx="264" cy="258" r="10"/>
    </g>
    <!-- volcan jerarquico -->
    <path d="M106 310 L170 206 L234 310 Z" fill="#8a6b45" stroke="#5d4728" stroke-width="2.5"/>
    <path d="M148 242 L170 206 L192 242 Q170 256 148 242 Z" fill="url(#lava)"/>
    <path d="M170 206 q-10 -26 6 -40 q-14 -22 8 -34" stroke="#8f8377" stroke-width="3" fill="none" opacity="0.65"/>
    <path d="M162 234 L148 298 M178 234 L194 298" stroke="#c2381f" stroke-width="3" opacity="0.8"/>
    <g stroke="#3f2f21" stroke-width="1.6" fill="#3f2f21" opacity="0.5">
      <path d="M170 268 L150 294 M170 268 L190 294" fill="none"/>
      <circle cx="170" cy="264" r="3"/><circle cx="148" cy="297" r="3"/><circle cx="192" cy="297" r="3"/>
    </g>
    <!-- huesos de dinosaurio -->
    <g opacity="0.92">
      <path d="M244 350 L272 356" stroke="#efe6d2" stroke-width="5" stroke-linecap="round"/>
      <g fill="#efe6d2">
        <circle cx="242" cy="345" r="4.5"/><circle cx="243" cy="355" r="4.5"/>
        <circle cx="273" cy="351" r="4.5"/><circle cx="274" cy="361" r="4.5"/>
      </g>
    </g>
    <!-- cienaga codasyl -->
    <ellipse cx="182" cy="408" rx="54" ry="32" fill="#6c7c48" stroke="#4d5a32" stroke-width="2"/>
    <g stroke="#3c4726" stroke-width="1.8" fill="none" opacity="0.85">
      <path d="M150 400 L182 392 L210 406 L174 420 L204 424 L156 416 Z"/>
      <circle cx="150" cy="400" r="3.4" fill="#3c4726"/><circle cx="182" cy="392" r="3.4" fill="#3c4726"/>
      <circle cx="210" cy="406" r="3.4" fill="#3c4726"/><circle cx="174" cy="420" r="3.4" fill="#3c4726"/>
      <circle cx="204" cy="424" r="3.4" fill="#3c4726"/><circle cx="156" cy="416" r="3.4" fill="#3c4726"/>
    </g>
  </g>
  <g class="rotulo" text-anchor="middle">
    <text class="region" x="180" y="132">TIERRAS PRIMIGENIAS</text>
    <text class="lugar" x="170" y="196">Volcán Jerárquico</text>
    <text class="fecha" x="170" y="330">IMS · 1966</text>
    <text class="lugar" x="182" y="458">Ciénaga CODASYL</text>
    <text class="fecha" x="182" y="472">modelo en red · 1969</text>
    <text class="chiste" x="180" y="516">«funcionaba, pero solo hacia abajo»</text>
  </g>

  <!-- ============ CONTINENTE RELACIONAL ============ -->
  <g filter="url(#wobble)">
    <path d="M348 268 Q352 190 412 146 Q486 116 556 138 Q608 172 618 246 Q624 334 592 420 Q556 502 480 552 Q400 570 352 514 Q330 434 336 350 Z"
          fill="#a7b980" stroke="#6f8050" stroke-width="2.5"/>
    <!-- cordillera de codd -->
    <g fill="#8d8266" stroke="#5f5741" stroke-width="2">
      <path d="M372 238 L400 180 L428 238 Z"/>
      <path d="M414 242 L446 176 L478 242 Z"/>
      <path d="M452 240 L478 192 L504 240 Z"/>
    </g>
    <path d="M434 194 L446 176 L458 194 Q446 202 434 194 Z" fill="#f4f1e6"/>
    <!-- valle de las formas normales -->
    <g stroke="#7d9257" stroke-width="3" fill="none" opacity="0.95">
      <path d="M362 306 Q412 294 464 308"/>
      <path d="M366 322 Q414 310 468 324"/>
      <path d="M370 338 Q418 326 472 340"/>
    </g>
    <!-- ciudadela de inmon -->
    <g fill="#9c9080" stroke="#5f5741" stroke-width="2">
      <rect x="530" y="300" width="60" height="46"/>
      <rect x="524" y="286" width="16" height="24"/>
      <rect x="552" y="278" width="16" height="32"/>
      <rect x="580" y="286" width="16" height="24"/>
    </g>
    <rect x="552" y="320" width="14" height="26" fill="#4a3f33"/>
    <!-- sierra copo de nieve -->
    <g fill="#cfd8d2" stroke="#7d8a84" stroke-width="2">
      <path d="M528 452 L554 404 L580 452 Z"/>
      <path d="M558 456 L580 418 L602 456 Z"/>
    </g>
    <!-- constelacion de kimball -->
    <g stroke="#c9a227" stroke-width="2.5" fill="none">
      <path d="M440 452 L440 414 M440 452 L478 440 M440 452 L470 484 M440 452 L414 486 M440 452 L402 434"/>
    </g>
    <g fill="#e8c24a" stroke="#a8801a" stroke-width="1.5">
      <circle cx="440" cy="452" r="11"/>
      <circle cx="440" cy="412" r="7"/><circle cx="480" cy="439" r="7"/>
      <circle cx="472" cy="486" r="7"/><circle cx="412" cy="488" r="7"/><circle cx="400" cy="432" r="7"/>
    </g>
  </g>
  <g class="rotulo" text-anchor="middle">
    <text class="region" x="470" y="106">CONTINENTE RELACIONAL</text>
    <text class="lugar" x="446" y="168">Cordillera de Codd</text>
    <text class="fecha" x="446" y="262">1970</text>
    <text class="lugar" x="408" y="290">Valle de las Formas Normales</text>
    <text class="fecha" x="408" y="360">1FN · 2FN · 3FN</text>
    <text class="lugar" x="570" y="270">Ciudadela de Inmon</text>
    <text class="fecha" x="570" y="366">almacén corporativo · 1990</text>
    <text class="lugar" x="440" y="512">Constelación de Kimball</text>
    <text class="fecha" x="440" y="526">estrella · 1996</text>
    <text class="lugar" x="572" y="478">Sierra Copo de Nieve</text>
  </g>

  <!-- ============ ARCHIPIELAGO ENSEMBLE ============ -->
  <g filter="url(#wobble)">
    <!-- fortaleza data vault -->
    <path d="M678 262 Q682 214 726 200 Q774 196 786 238 Q792 286 758 310 Q706 318 680 296 Z"
          fill="#b3a276" stroke="#7d6e48" stroke-width="2.5"/>
    <rect x="708" y="232" width="50" height="46" rx="4" fill="#8b8172" stroke="#544c3e" stroke-width="2.5"/>
    <circle cx="733" cy="255" r="13" fill="#6f6658" stroke="#3f382c" stroke-width="2.5"/>
    <g stroke="#d8cfbb" stroke-width="2.5" stroke-linecap="round">
      <path d="M733 245 L733 265 M723 255 L743 255 M726 248 L740 262 M740 248 L726 262"/>
    </g>
    <!-- fiordos del ancla -->
    <path d="M818 214 L838 178 L860 208 L882 174 L904 212 L926 182 L938 222 Q916 250 878 252 Q838 248 818 214 Z"
          fill="#a9b8a0" stroke="#6f7f68" stroke-width="2.5"/>
    <g stroke="#4a5a52" stroke-width="3" fill="none" stroke-linecap="round">
      <path d="M876 202 L876 236"/><path d="M862 212 L890 212"/>
      <path d="M858 226 Q876 248 894 226"/>
      <circle cx="876" cy="198" r="5"/>
    </g>
    <g fill="#a9b8a0" stroke="#6f7f68" stroke-width="1.8">
      <circle cx="822" cy="278" r="7"/><circle cx="846" cy="292" r="5"/><circle cx="874" cy="284" r="6"/>
      <circle cx="900" cy="294" r="5"/><circle cx="926" cy="276" r="7"/><circle cx="938" cy="300" r="4"/>
      <circle cx="836" cy="312" r="4"/><circle cx="886" cy="316" r="5"/><circle cx="916" cy="322" r="4"/>
      <circle cx="860" cy="334" r="4"/><circle cx="906" cy="342" r="3.5"/><circle cx="934" cy="330" r="4"/>
    </g>
    <!-- islotes 2G e hyper -->
    <g fill="#b3a276" stroke="#7d6e48" stroke-width="1.8">
      <circle cx="756" cy="352" r="9"/><circle cx="780" cy="364" r="7"/>
    </g>
    <!-- cabo focal -->
    <path d="M664 404 Q694 380 732 394 Q750 422 728 446 Q690 460 666 438 Z"
          fill="#bfae83" stroke="#84754d" stroke-width="2.5"/>
    <circle cx="700" cy="420" r="15" fill="none" stroke="#6d5f3c" stroke-width="2.5"/>
    <circle cx="700" cy="420" r="7" fill="none" stroke="#6d5f3c" stroke-width="2.5"/>
    <circle cx="700" cy="420" r="2.5" fill="#6d5f3c"/>
    <!-- isla bicefala: head & version -->
    <path d="M776 424 Q792 392 822 400 Q838 386 864 404 Q878 434 852 456 Q800 464 778 442 Z"
          fill="#b9a98f" stroke="#7f7059" stroke-width="2.5"/>
    <path d="M790 430 L810 402 L830 430 Z" fill="#8f8271" stroke="#5c5344" stroke-width="2"/>
    <path d="M824 432 L846 406 L866 432 Z" fill="#8f8271" stroke="#5c5344" stroke-width="2"/>
    <!-- islote del cementerio del mdm -->
    <path d="M556 604 Q564 584 588 584 Q612 588 614 606 Q602 620 578 620 Q560 618 556 604 Z"
          fill="#b9a98f" stroke="#7f7059" stroke-width="2.5"/>
    <g stroke="#5e5647" stroke-width="3.2" stroke-linecap="round" opacity="0.95">
      <path d="M572 610 L572 594 M565 600 L579 600"/>
      <path d="M596 610 L596 596 M590 601 L602 601"/>
    </g>
    <!-- serpiente marina -->
    <g stroke="#5b8494" stroke-width="4" fill="none" stroke-linecap="round">
      <path d="M690 572 q20 -24 40 0 t40 0 t34 -4"/>
      <path d="M804 568 q18 -20 34 -4 q12 14 -6 20 q-18 6 -28 -16"/>
      <path d="M712 560 l-6 -12 M752 560 l-6 -12"/>
    </g>
    <circle cx="830" cy="564" r="3" fill="#3f2f21"/>
  </g>
  <g class="rotulo" text-anchor="middle">
    <text class="region" x="772" y="132">ARCHIPIÉLAGO ENSEMBLE</text>
    <text class="lugar" x="733" y="192">Fortaleza Data Vault</text>
    <text class="fecha" x="733" y="338">Lockheed Martin · 1990-2000</text>
    <text class="lugar" x="878" y="166">Fiordos del Ancla</text>
    <text class="fecha" x="878" y="362">Suecia · 2004</text>
    <text class="fecha" x="878" y="376">una isla por atributo</text>
    <text class="fecha" x="768" y="388">islotes 2G e Hyper</text>
    <text class="lugar" x="700" y="476">Cabo Focal</text>
    <text class="lugar" x="822" y="482">Isla Bicéfala</text>
    <text class="fecha" x="822" y="496">Head &amp; Version</text>
    <text class="mar" x="645" y="512" text-anchor="start" transform="rotate(-90 645 512)">ESTRECHO DEL JOIN</text>
    <text class="mar" x="800" y="530">MAR DE LA 6FN</text>
    <text class="chiste" x="585" y="640">Cementerio del MDM</text>
    <text class="chiste" x="812" y="620">«aquí hay dragones: nadie acordó qué es un cliente»</text>
  </g>

  <!-- ============ FRONTERA FUTURA ============ -->
  <g filter="url(#wobbleSuave)">
    <path d="M950 230 Q970 168 1050 162 Q1140 168 1156 250 Q1164 380 1148 490 Q1120 610 1044 638 Q972 612 952 500 Q940 370 950 230 Z"
          fill="url(#cieloFuturo)" stroke="#3b3157" stroke-width="2.5"/>
    <circle cx="1050" cy="380" r="130" fill="url(#neon)" opacity="0.35"/>
    <!-- islas flotantes de la malla -->
    <g fill="#8b7fb0" stroke="#5ee8e0" stroke-width="1.8">
      <path d="M980 216 l30 0 l-8 12 l-16 0 Z"/>
      <path d="M1036 202 l34 0 l-9 13 l-18 0 Z"/>
      <path d="M1094 218 l28 0 l-8 12 l-14 0 Z"/>
    </g>
    <g stroke="#5ee8e0" stroke-width="1.6" fill="none">
      <path d="M995 216 L995 202 L1006 206 L995 210"/>
      <path d="M1053 202 L1053 188 L1064 192 L1053 196"/>
      <path d="M1108 218 L1108 204 L1119 208 L1108 212"/>
    </g>
    <!-- via activity schema -->
    <path d="M972 300 L1132 300" stroke="#e58fc4" stroke-width="2.6" fill="none"/>
    <g fill="#e58fc4">
      <circle cx="980" cy="300" r="4.5"/><circle cx="1018" cy="300" r="4.5"/>
      <circle cx="1056" cy="300" r="4.5"/><circle cx="1094" cy="300" r="4.5"/><circle cx="1128" cy="300" r="4.5"/>
    </g>
    <!-- megatorre tablon -->
    <rect x="1016" y="360" width="72" height="104" rx="3" fill="#4f4470" stroke="#5ee8e0" stroke-width="2"/>
    <g fill="#5ee8e0" opacity="0.75">
      <rect x="1026" y="372" width="12" height="9"/><rect x="1046" y="372" width="12" height="9"/><rect x="1066" y="372" width="12" height="9"/>
      <rect x="1026" y="390" width="12" height="9"/><rect x="1046" y="390" width="12" height="9"/><rect x="1066" y="390" width="12" height="9"/>
      <rect x="1026" y="408" width="12" height="9"/><rect x="1046" y="408" width="12" height="9"/><rect x="1066" y="408" width="12" height="9"/>
      <rect x="1026" y="426" width="12" height="9"/><rect x="1046" y="426" width="12" height="9"/><rect x="1066" y="426" width="12" height="9"/>
      <rect x="1026" y="444" width="12" height="9"/><rect x="1046" y="444" width="12" height="9"/><rect x="1066" y="444" width="12" height="9"/>
    </g>
    <!-- puente de puppini -->
    <path d="M996 598 Q1052 562 1108 598" fill="none" stroke="#f0d98a" stroke-width="4"/>
    <g stroke="#f0d98a" stroke-width="2">
      <path d="M1012 584 L1012 600 M1032 574 L1032 600 M1052 570 L1052 600 M1072 574 L1072 600 M1092 584 L1092 600"/>
    </g>
    <path d="M990 600 L1114 600" stroke="#f0d98a" stroke-width="3.5"/>
  </g>
  <g class="rotulo" text-anchor="middle">
    <text class="region" x="1048" y="106">FRONTERA FUTURA</text>
    <text class="lugar futuro" x="1050" y="252">Islas Flotantes de la Malla</text>
    <text class="fecha futurofecha" x="1050" y="266">data mesh · 2019</text>
    <text class="lugar futuro" x="1050" y="330">Vía Activity Schema</text>
    <text class="fecha futurofecha" x="1050" y="344">2020</text>
    <text class="lugar futuro" x="1052" y="486">Megatorre Tablón</text>
    <text class="fecha futurofecha" x="1052" y="500">one big table</text>
    <text class="lugar futuro" x="1052" y="530">Puente de Puppini</text>
    <text class="fecha futurofecha" x="1052" y="544">unified star schema · 2020</text>
  </g>

  <!-- ============ BARCO ============ -->
  <g filter="url(#wobbleSuave)" transform="translate(490 642) scale(0.9)">
    <path d="M-26 10 L26 10 L18 24 L-18 24 Z" fill="#8a6b45" stroke="#5d4728" stroke-width="2"/>
    <path d="M0 10 L0 -24" stroke="#5d4728" stroke-width="2.5"/>
    <path d="M2 -22 L20 -4 L2 -4 Z" fill="#efe6d2" stroke="#5d4728" stroke-width="1.8"/>
    <path d="M-2 -18 L-16 -4 L-2 -4 Z" fill="#efe6d2" stroke="#5d4728" stroke-width="1.8"/>
  </g>
  <text class="rotulo chiste" x="490" y="688" text-anchor="middle">rumbo al este, cargado de requisitos</text>

  <!-- ============ ROSA DE LOS VIENTOS ============ -->
  <g transform="translate(112 628)">
    <circle r="42" fill="none" stroke="#6f5f45" stroke-width="2"/>
    <circle r="32" fill="none" stroke="#6f5f45" stroke-width="1" opacity="0.6"/>
    <path d="M0 -40 L8 -8 L40 0 L8 8 L0 40 L-8 8 L-40 0 L-8 -8 Z" fill="#a08f6d" stroke="#5c4a33" stroke-width="1.6"/>
    <path d="M0 -40 L8 -8 L0 0 L-8 -8 Z" fill="#5c4a33"/>
    <g class="rotulo" font-size="10.5" font-weight="bold" text-anchor="middle" fill="#5c4a33">
      <text y="-48">HISTORIA</text>
      <text y="58">CONSUMO</text>
      <text x="-58" y="4">AYER</text>
      <text x="60" y="4">MAÑANA</text>
    </g>
  </g>

  <!-- ============ LINEA TEMPORAL ============ -->
  <g transform="translate(0 724)">
    <path d="M240 0 L1116 0" stroke="#6f5f45" stroke-width="2.5"/>
    <path d="M1116 0 L1102 -7 L1102 7 Z" fill="#6f5f45"/>
    <g stroke="#6f5f45" stroke-width="2">
      <path d="M240 -7 L240 7"/><path d="M412 -7 L412 7"/><path d="M584 -7 L584 7"/>
      <path d="M756 -7 L756 7"/><path d="M928 -7 L928 7"/><path d="M1080 -7 L1080 7"/>
    </g>
    <g class="rotulo" font-size="11.5" text-anchor="middle" fill="#5b4630">
      <text x="240" y="26">1966</text>
      <text x="412" y="26">1970</text>
      <text x="584" y="26">1990</text>
      <text x="756" y="26">2000</text>
      <text x="928" y="26">2010</text>
      <text x="1080" y="26">hoy</text>
    </g>
    <text class="rotulo" x="212" y="0" font-size="11.5" font-style="italic" text-anchor="end" fill="#6b5943">cuanto más al este,</text>
    <text class="rotulo" x="212" y="16" font-size="11.5" font-style="italic" text-anchor="end" fill="#6b5943">más joven y menos probado</text>
  </g>
</svg>
